<svg width="24" height="23" viewBox="0 0 24 23" fill="none" xmlns="http://www.w3.org/2000/svg">
<path fill-rule="evenodd" clip-rule="evenodd" d="M7.12109 16.7217C6.70709 16.7217 6.37109 16.4018 6.37109 16.0076V9.47583C6.37109 9.08164 6.70709 8.76172 7.12109 8.76172C7.53509 8.76172 7.87109 9.08164 7.87109 9.47583V16.0076C7.87109 16.4018 7.53509 16.7217 7.12109 16.7217" fill="#D0D0D0"/>
<path fill-rule="evenodd" clip-rule="evenodd" d="M11.7891 16.7216C11.3751 16.7216 11.0391 16.4017 11.0391 16.0075V6.34985C11.0391 5.95566 11.3751 5.63574 11.7891 5.63574C12.2031 5.63574 12.5391 5.95566 12.5391 6.34985V16.0075C12.5391 16.4017 12.2031 16.7216 11.7891 16.7216" fill="#D0D0D0"/>
<path fill-rule="evenodd" clip-rule="evenodd" d="M16.3789 16.7213C15.9649 16.7213 15.6289 16.4014 15.6289 16.0072V12.928C15.6289 12.5338 15.9649 12.2139 16.3789 12.2139C16.7929 12.2139 17.1289 12.5338 17.1289 12.928V16.0072C17.1289 16.4014 16.7929 16.7213 16.3789 16.7213" fill="#D0D0D0"/>
<path fill-rule="evenodd" clip-rule="evenodd" d="M7.064 2.38037C4.292 2.38037 2.5 4.1866 2.5 6.98401V15.3915C2.5 18.1889 4.292 19.9951 7.064 19.9951H16.436C19.209 19.9951 21 18.1889 21 15.3915V6.98401C21 4.1866 19.209 2.38037 16.436 2.38037H7.064ZM16.436 21.4233H7.064C3.437 21.4233 1 18.9992 1 15.3915V6.98401C1 3.37632 3.437 0.952148 7.064 0.952148H16.436C20.063 0.952148 22.5 3.37632 22.5 6.98401V15.3915C22.5 18.9992 20.063 21.4233 16.436 21.4233V21.4233Z" fill="#D0D0D0"/>
</svg>
