<svg width="19" height="18" viewBox="0 0 19 18" fill="none" xmlns="http://www.w3.org/2000/svg">
<path d="M9.5 1.5C5.3675 1.5 2 4.8675 2 9C2 13.1325 5.3675 16.5 9.5 16.5C13.6325 16.5 17 13.1325 17 9C17 4.8675 13.6325 1.5 9.5 1.5ZM8.9375 6C8.9375 5.6925 9.1925 5.4375 9.5 5.4375C9.8075 5.4375 10.0625 5.6925 10.0625 6V9.75C10.0625 10.0575 9.8075 10.3125 9.5 10.3125C9.1925 10.3125 8.9375 10.0575 8.9375 9.75V6ZM10.19 12.285C10.1525 12.3825 10.1 12.4575 10.0325 12.5325C9.9575 12.6 9.875 12.6525 9.785 12.69C9.695 12.7275 9.5975 12.75 9.5 12.75C9.4025 12.75 9.305 12.7275 9.215 12.69C9.125 12.6525 9.0425 12.6 8.9675 12.5325C8.9 12.4575 8.8475 12.3825 8.81 12.285C8.7725 12.195 8.75 12.0975 8.75 12C8.75 11.9025 8.7725 11.805 8.81 11.715C8.8475 11.625 8.9 11.5425 8.9675 11.4675C9.0425 11.4 9.125 11.3475 9.215 11.31C9.395 11.235 9.605 11.235 9.785 11.31C9.875 11.3475 9.9575 11.4 10.0325 11.4675C10.1 11.5425 10.1525 11.625 10.19 11.715C10.2275 11.805 10.25 11.9025 10.25 12C10.25 12.0975 10.2275 12.195 10.19 12.285Z" fill="#F0F0F0"/>
</svg>
