<svg width="24" height="24" viewBox="0 0 24 24" fill="none" xmlns="http://www.w3.org/2000/svg">
<mask id="mask0_6429_8222" style="mask-type:alpha" maskUnits="userSpaceOnUse" x="3" y="1" width="19" height="18">
<path fill-rule="evenodd" clip-rule="evenodd" d="M3 1H21.4969V18.348H3V1Z" fill="white"/>
</mask>
<g mask="url(#mask0_6429_8222)">
<path fill-rule="evenodd" clip-rule="evenodd" d="M12.247 2.5C8.752 2.5 6.316 5.238 6.316 7.695C6.316 9.774 5.739 10.735 5.229 11.583C4.82 12.264 4.497 12.802 4.497 13.971C4.664 15.857 5.909 16.848 12.247 16.848C18.55 16.848 19.834 15.813 20 13.906C19.997 12.802 19.674 12.264 19.265 11.583C18.755 10.735 18.178 9.774 18.178 7.695C18.178 5.238 15.742 2.5 12.247 2.5ZM12.247 18.348C7.57101 18.348 3.34501 18.018 3.00001 14.035C2.99701 12.387 3.50001 11.549 3.94401 10.811C4.39301 10.063 4.81601 9.358 4.81601 7.695C4.81601 4.462 7.80201 1 12.247 1C16.692 1 19.678 4.462 19.678 7.695C19.678 9.358 20.101 10.063 20.55 10.811C20.994 11.549 21.497 12.387 21.497 13.971C21.148 18.018 16.923 18.348 12.247 18.348Z" fill="#D0D0D0"/>
</g>
<path fill-rule="evenodd" clip-rule="evenodd" d="M12.199 22.4996H12.197C11.076 22.4986 10.015 22.0046 9.21 21.1076C8.933 20.8006 8.958 20.3256 9.266 20.0496C9.574 19.7716 10.048 19.7966 10.325 20.1056C10.843 20.6826 11.508 20.9996 12.198 20.9996H12.199C12.892 20.9996 13.56 20.6826 14.079 20.1046C14.357 19.7976 14.831 19.7726 15.138 20.0496C15.446 20.3266 15.471 20.8016 15.194 21.1086C14.386 22.0056 13.323 22.4996 12.199 22.4996Z" fill="#D0D0D0"/>
</svg>
