<svg width="33" height="32" viewBox="0 0 33 32" fill="none" xmlns="http://www.w3.org/2000/svg">
<path d="M22.7266 2.66699C27.2613 2.66699 29.8213 5.23899 29.8346 9.77366V22.227C29.8346 26.7603 27.2613 29.3337 22.7266 29.3337H10.2746C5.73997 29.3337 3.16797 26.7603 3.16797 22.227V9.77366C3.16797 5.23899 5.73997 2.66699 10.2746 2.66699H22.7266ZM17.168 8.17366C16.7933 7.94699 16.34 7.94699 15.9813 8.17366C15.62 8.39899 15.4213 8.81366 15.46 9.22699V22.8137C15.528 23.387 16.0066 23.8137 16.5666 23.8137C17.1413 23.8137 17.62 23.387 17.6733 22.8137V9.22699C17.7266 8.81366 17.528 8.39899 17.168 8.17366ZM10.9413 12.547C10.5813 12.3203 10.1266 12.3203 9.76797 12.547C9.40664 12.7737 9.20797 13.1857 9.24797 13.6003V22.8137C9.29997 23.387 9.77997 23.8137 10.3533 23.8137C10.928 23.8137 11.4066 23.387 11.46 22.8137V13.6003C11.5013 13.1857 11.3 12.7737 10.9413 12.547ZM23.2866 17.387C22.928 17.1603 22.4746 17.1603 22.1013 17.387C21.74 17.6137 21.5413 18.0123 21.5946 18.4403V22.8137C21.648 23.387 22.1266 23.8137 22.7013 23.8137C23.2613 23.8137 23.74 23.387 23.808 22.8137V18.4403C23.8466 18.0123 23.648 17.6137 23.2866 17.387Z" fill="#FF9C4B"/>
</svg>
