<svg width="32" height="32" viewBox="0 0 32 32" fill="none" xmlns="http://www.w3.org/2000/svg">
<path d="M11.9408 6.61397C12.5943 6.49165 13.2495 6.81794 13.5346 7.40769C13.6056 7.51471 13.6624 7.63015 13.7037 7.75124C13.8848 10.547 14.078 13.2954 14.2591 16.0438C14.255 16.3295 14.2999 16.6139 14.3919 16.8849C14.6086 17.4183 15.1478 17.7567 15.7322 17.726L24.6071 17.1574L24.6675 17.1811L24.8295 17.1927C25.1503 17.2338 25.4494 17.3803 25.6765 17.6107C25.9414 17.8795 26.0867 18.2406 26.0804 18.6145C25.7305 23.7107 21.9942 27.9686 16.9097 29.0656C11.8252 30.1626 6.61291 27.8352 4.11639 23.3532C3.38231 22.0622 2.91842 20.6405 2.75195 19.1713C2.68739 18.736 2.65912 18.2962 2.66743 17.8563C2.68426 12.4374 6.54238 7.76006 11.9408 6.61397ZM17.2174 2.66907C23.3118 2.85151 28.4052 7.2757 29.3283 13.1888C29.3341 13.2241 29.3341 13.2601 29.3283 13.2954L29.3266 13.4624C29.3066 13.683 29.216 13.8935 29.0655 14.0624C28.8774 14.2736 28.6113 14.4026 28.3261 14.4208L18.0868 15.0961L17.9181 15.0995C17.6386 15.0858 17.3706 14.9771 17.1618 14.7892C16.9113 14.5637 16.7693 14.245 16.7706 13.9114L16.0824 3.85372V3.68787C16.0949 3.405 16.2216 3.13864 16.4345 2.94752C16.6474 2.7564 16.9291 2.65622 17.2174 2.66907Z" fill="#EC4794"/>
</svg>
