<svg width="33" height="32" viewBox="0 0 33 32" fill="none" xmlns="http://www.w3.org/2000/svg">
<path d="M16.5009 20C9.82086 20 4.38086 24.48 4.38086 30C4.38086 30.3733 4.67419 30.6667 5.04753 30.6667H27.9542C28.3275 30.6667 28.6209 30.3733 28.6209 30C28.6209 24.48 23.1809 20 16.5009 20Z" fill="#48EE88"/>
<path d="M21.4473 4.88033C20.2473 3.52033 18.4607 2.66699 16.5007 2.66699C14.634 2.66699 12.9273 3.42699 11.714 4.68033C10.554 5.88033 9.83398 7.53366 9.83398 9.33366C9.83398 10.587 10.1807 11.7603 10.8073 12.7603C11.1407 13.3337 11.5673 13.8537 12.074 14.2803C13.234 15.347 14.7807 16.0003 16.5007 16.0003C18.9407 16.0003 21.0473 14.6937 22.2073 12.7603C22.554 12.187 22.8207 11.547 22.9673 10.8803C23.1007 10.387 23.1673 9.86699 23.1673 9.33366C23.1673 7.62699 22.514 6.06699 21.4473 4.88033ZM18.994 10.5603H17.754V11.8537C17.754 12.547 17.194 13.107 16.5007 13.107C15.8073 13.107 15.2473 12.547 15.2473 11.8537V10.5603H14.0073C13.314 10.5603 12.754 10.0003 12.754 9.30699C12.754 8.61366 13.314 8.05366 14.0073 8.05366H15.2473V6.86699C15.2473 6.17366 15.8073 5.61366 16.5007 5.61366C17.194 5.61366 17.754 6.17366 17.754 6.86699V8.05366H18.994C19.6873 8.05366 20.2473 8.61366 20.2473 9.30699C20.2473 10.0003 19.6873 10.5603 18.994 10.5603Z" fill="#48EE88"/>
</svg>
