<svg width="33" height="32" viewBox="0 0 33 32" fill="none" xmlns="http://www.w3.org/2000/svg">
<path fill-rule="evenodd" clip-rule="evenodd" d="M21.6327 3.3342C22.474 3.3342 23.314 3.45286 24.1127 3.72086C29.034 5.32086 30.8074 10.7209 29.326 15.4409C28.486 17.8529 27.1127 20.0542 25.314 21.8529C22.7394 24.3462 19.914 26.5595 16.8727 28.4662L16.5394 28.6675L16.1927 28.4529C13.1407 26.5595 10.2994 24.3462 7.7007 21.8395C5.91404 20.0409 4.53937 17.8529 3.68604 15.4409C2.17937 10.7209 3.9527 5.32086 8.92737 3.69286C9.31404 3.55953 9.7127 3.4662 10.1127 3.4142H10.2727C10.6474 3.35953 11.0194 3.3342 11.3927 3.3342H11.5394C12.3794 3.35953 13.1927 3.5062 13.9807 3.7742H14.0594C14.1127 3.79953 14.1527 3.82753 14.1794 3.85286C14.474 3.94753 14.7527 4.0542 15.0194 4.20086L15.526 4.42753C15.6485 4.49283 15.7859 4.5926 15.9047 4.67883C15.9799 4.73346 16.0477 4.78265 16.0994 4.8142C16.1211 4.82704 16.1432 4.83994 16.1655 4.85296C16.2799 4.9197 16.399 4.98921 16.4994 5.0662C17.9807 3.9342 19.7794 3.32086 21.6327 3.3342ZM25.1794 12.9342C25.726 12.9195 26.1927 12.4809 26.2327 11.9195V11.7609C26.2727 9.89286 25.1407 8.20086 23.4194 7.54753C22.8727 7.35953 22.2727 7.6542 22.0727 8.2142C21.886 8.7742 22.1794 9.38753 22.7394 9.5862C23.594 9.9062 24.166 10.7475 24.166 11.6795V11.7209C24.1407 12.0262 24.2327 12.3209 24.4194 12.5475C24.606 12.7742 24.886 12.9062 25.1794 12.9342Z" fill="#00A4FF"/>
</svg>
